<svg width="20" height="21" viewBox="0 0 20 21" fill="none" xmlns="http://www.w3.org/2000/svg">
<path d="M14 21C13.7167 21 13.4792 20.9042 13.2875 20.7125C13.0958 20.5208 13 20.2833 13 20C13 19.7167 13.0958 19.4792 13.2875 19.2875C13.4792 19.0958 13.7167 19 14 19H17V18H14C13.7167 18 13.4792 17.9042 13.2875 17.7125C13.0958 17.5208 13 17.2833 13 17C13 16.7167 13.0958 16.4792 13.2875 16.2875C13.4792 16.0958 13.7167 16 14 16H17V15H14C13.7167 15 13.4792 14.9042 13.2875 14.7125C13.0958 14.5208 13 14.2833 13 14C13 13.7167 13.0958 13.4792 13.2875 13.2875C13.4792 13.0958 13.7167 13 14 13H17V12H14C13.7167 12 13.4792 11.9042 13.2875 11.7125C13.0958 11.5208 13 11.2833 13 11C13 10.7167 13.0958 10.4792 13.2875 10.2875C13.4792 10.0958 13.7167 10 14 10H17V9H14C13.7167 9 13.4792 8.90417 13.2875 8.7125C13.0958 8.52083 13 8.28333 13 8C13 7.71667 13.0958 7.47917 13.2875 7.2875C13.4792 7.09583 13.7167 7 14 7H17V6H14C13.7167 6 13.4792 5.90417 13.2875 5.7125C13.0958 5.52083 13 5.28333 13 5C13 4.71667 13.0958 4.47917 13.2875 4.2875C13.4792 4.09583 13.7167 4 14 4H18C18.55 4 19.0208 4.19583 19.4125 4.5875C19.8042 4.97917 20 5.45 20 6V19C20 19.55 19.8042 20.0208 19.4125 20.4125C19.0208 20.8042 18.55 21 18 21H14ZM6 13C7.1 13 8.04167 12.4583 8.825 11.375C9.60833 10.2917 10 9 10 7.5C10 6 9.60833 4.70833 8.825 3.625C8.04167 2.54167 7.1 2 6 2C4.9 2 3.95833 2.54167 3.175 3.625C2.39167 4.70833 2 6 2 7.5C2 9 2.39167 10.2917 3.175 11.375C3.95833 12.4583 4.9 13 6 13ZM6 21C5.2 21 4.54167 20.7042 4.025 20.1125C3.50833 19.5208 3.30833 18.825 3.425 18.025L3.825 14.5C2.69167 13.95 1.77083 13.0458 1.0625 11.7875C0.354167 10.5292 0 9.1 0 7.5C0 5.41667 0.583333 3.64583 1.75 2.1875C2.91667 0.729167 4.33333 0 6 0C7.66667 0 9.08333 0.729167 10.25 2.1875C11.4167 3.64583 12 5.41667 12 7.5C12 9.1 11.6458 10.5292 10.9375 11.7875C10.2292 13.0458 9.30833 13.95 8.175 14.5L8.575 18.025C8.69167 18.825 8.49167 19.5208 7.975 20.1125C7.45833 20.7042 6.8 21 6 21Z" fill="#065F46"/>
</svg>
