<svg width="18" height="20" viewBox="0 0 18 20" fill="none" xmlns="http://www.w3.org/2000/svg">
<path d="M3.975 20C3.45833 20 3.0125 19.8292 2.6375 19.4875C2.2625 19.1458 2.05 18.725 2 18.225L0 0H18L16 18.225C15.95 18.725 15.7375 19.1458 15.3625 19.4875C14.9875 19.8292 14.5417 20 14.025 20H3.975ZM2.9 8L4 18H14L15.1 8H2.9ZM2.65 6H15.35L15.75 2H2.25L2.65 6ZM9 15C8.76667 15 8.56667 14.9167 8.4 14.75C8.23333 14.5833 8.15 14.3833 8.15 14.15C8.15 13.9 8.22083 13.6125 8.3625 13.2875C8.50417 12.9625 8.71667 12.5917 9 12.175C9.28333 12.5917 9.49583 12.9625 9.6375 13.2875C9.77917 13.6125 9.85 13.9 9.85 14.15C9.85 14.3833 9.76667 14.5833 9.6 14.75C9.43333 14.9167 9.23333 15 9 15ZM9 17C9.8 17 10.475 16.725 11.025 16.175C11.575 15.625 11.85 14.95 11.85 14.15C11.85 13.4667 11.6292 12.725 11.1875 11.925C10.7458 11.125 10.0167 10.15 9 9C7.98333 10.15 7.25417 11.125 6.8125 11.925C6.37083 12.725 6.15 13.4667 6.15 14.15C6.15 14.95 6.425 15.625 6.975 16.175C7.525 16.725 8.2 17 9 17ZM2.9 18H15.1H14H4H2.9Z" fill="#065F46"/>
</svg>
